<?xml version="1.0" encoding="UTF-8"?>
<svg id="Livello_2" data-name="Livello 2" xmlns="http://www.w3.org/2000/svg" viewBox="0 0 450 450">
  <defs>
    <style>
      .cls-1 {
        fill: #bcb2a6;
      }

      .cls-1, .cls-2 {
        stroke-width: 0px;
      }

      .cls-2 {
        fill: #ccc0b3;
      }
    </style>
  </defs>
  <g id="Livello_1-2" data-name="Livello 1">
    <rect class="cls-1" width="450" height="450" rx="7.6" ry="7.6"/>
    <rect class="cls-2" x="10" y="8" width="100" height="100" rx="9" ry="9"/>
    <rect class="cls-2" x="119" y="8" width="100" height="100" rx="9" ry="9"/>
    <rect class="cls-2" x="229" y="8" width="100" height="100" rx="9" ry="9"/>
    <rect class="cls-2" x="339" y="8" width="100" height="100" rx="9" ry="9"/>
    <rect class="cls-2" x="10.5" y="118" width="100" height="100" rx="9" ry="9"/>
    <rect class="cls-2" x="119.5" y="118" width="100" height="100" rx="9" ry="9"/>
    <rect class="cls-2" x="229.5" y="118" width="100" height="100" rx="9" ry="9"/>
    <rect class="cls-2" x="339.5" y="118" width="100" height="100" rx="9" ry="9"/>
    <rect class="cls-2" x="10.25" y="228" width="100" height="100" rx="9" ry="9"/>
    <rect class="cls-2" x="119.25" y="228" width="100" height="100" rx="9" ry="9"/>
    <rect class="cls-2" x="229.25" y="228" width="100" height="100" rx="9" ry="9"/>
    <rect class="cls-2" x="339.25" y="228" width="100" height="100" rx="9" ry="9"/>
    <rect class="cls-2" x="10.75" y="338" width="100" height="100" rx="9" ry="9"/>
    <rect class="cls-2" x="119.75" y="338" width="100" height="100" rx="9" ry="9"/>
    <rect class="cls-2" x="229.75" y="338" width="100" height="100" rx="9" ry="9"/>
    <rect class="cls-2" x="339.75" y="338" width="100" height="100" rx="9" ry="9"/>
  </g>
</svg>