<?xml version="1.0" encoding="UTF-8"?>
<svg xmlns="http://www.w3.org/2000/svg" viewBox="0 0 450 450">
  <defs>
    <style>
      .cls-1 { fill: #bbaea0; }
      .cls-2 { fill: #d6cdc4; }
    </style>
  </defs>
  <rect class="cls-1" width="450" height="450" rx="7.6" ry="7.6"/>
  <rect class="cls-1" x="9" y="9" width="432" height="432" rx="7.6" ry="7.6"/>
  <rect class="cls-2" x="9" y="9" width="80" height="80" rx="8.64" ry="8.64"/>
  <rect class="cls-2" x="97" y="9" width="80" height="80" rx="8.64" ry="8.64"/>
  <rect class="cls-2" x="185" y="9" width="80" height="80" rx="8.64" ry="8.64"/>
  <rect class="cls-2" x="273" y="9" width="80" height="80" rx="8.64" ry="8.64"/>
  <rect class="cls-2" x="361" y="9" width="80" height="80" rx="8.64" ry="8.64"/>
  <rect class="cls-2" x="9" y="97" width="80" height="80" rx="8.64" ry="8.64"/>
  <rect class="cls-2" x="97" y="97" width="80" height="80" rx="8.64" ry="8.64"/>
  <rect class="cls-2" x="185" y="97" width="80" height="80" rx="8.64" ry="8.64"/>
  <rect class="cls-2" x="273" y="97" width="80" height="80" rx="8.64" ry="8.64"/>
  <rect class="cls-2" x="361" y="97" width="80" height="80" rx="8.64" ry="8.64"/>
  <rect class="cls-2" x="9" y="185" width="80" height="80" rx="8.64" ry="8.64"/>
  <rect class="cls-2" x="97" y="185" width="80" height="80" rx="8.64" ry="8.64"/>
  <rect class="cls-2" x="185" y="185" width="80" height="80" rx="8.64" ry="8.64"/>
  <rect class="cls-2" x="273" y="185" width="80" height="80" rx="8.64" ry="8.64"/>
  <rect class="cls-2" x="361" y="185" width="80" height="80" rx="8.64" ry="8.64"/>
  <rect class="cls-2" x="9" y="273" width="80" height="80" rx="8.64" ry="8.64"/>
  <rect class="cls-2" x="97" y="273" width="80" height="80" rx="8.64" ry="8.64"/>
  <rect class="cls-2" x="185" y="273" width="80" height="80" rx="8.64" ry="8.64"/>
  <rect class="cls-2" x="273" y="273" width="80" height="80" rx="8.64" ry="8.64"/>
  <rect class="cls-2" x="361" y="273" width="80" height="80" rx="8.64" ry="8.64"/>
  <rect class="cls-2" x="9" y="361" width="80" height="80" rx="8.64" ry="8.64"/>
  <rect class="cls-2" x="97" y="361" width="80" height="80" rx="8.64" ry="8.64"/>
  <rect class="cls-2" x="185" y="361" width="80" height="80" rx="8.64" ry="8.64"/>
  <rect class="cls-2" x="273" y="361" width="80" height="80" rx="8.64" ry="8.64"/>
  <rect class="cls-2" x="361" y="361" width="80" height="80" rx="8.64" ry="8.64"/>
</svg>
