<?xml version="1.0" encoding="UTF-8"?>
<svg xmlns="http://www.w3.org/2000/svg" viewBox="0 0 450 450">
  <defs>
    <style>
      .cls-1 { fill: #bbaea0; }
      .cls-2 { fill: #d6cdc4; }
    </style>
  </defs>
  <rect class="cls-1" width="450" height="450" rx="7.6" ry="7.6"/>
  <rect class="cls-1" x="6" y="6" width="438" height="438" rx="7.6" ry="7.6"/>
  <rect class="cls-2" x="6" y="6" width="68" height="68" rx="8.64" ry="8.64"/>
  <rect class="cls-2" x="80" y="6" width="68" height="68" rx="8.64" ry="8.64"/>
  <rect class="cls-2" x="154" y="6" width="68" height="68" rx="8.64" ry="8.64"/>
  <rect class="cls-2" x="228" y="6" width="68" height="68" rx="8.64" ry="8.64"/>
  <rect class="cls-2" x="302" y="6" width="68" height="68" rx="8.64" ry="8.64"/>
  <rect class="cls-2" x="376" y="6" width="68" height="68" rx="8.64" ry="8.64"/>
  <rect class="cls-2" x="6" y="80" width="68" height="68" rx="8.64" ry="8.64"/>
  <rect class="cls-2" x="80" y="80" width="68" height="68" rx="8.64" ry="8.64"/>
  <rect class="cls-2" x="154" y="80" width="68" height="68" rx="8.64" ry="8.64"/>
  <rect class="cls-2" x="228" y="80" width="68" height="68" rx="8.64" ry="8.64"/>
  <rect class="cls-2" x="302" y="80" width="68" height="68" rx="8.64" ry="8.64"/>
  <rect class="cls-2" x="376" y="80" width="68" height="68" rx="8.64" ry="8.64"/>
  <rect class="cls-2" x="6" y="154" width="68" height="68" rx="8.64" ry="8.64"/>
  <rect class="cls-2" x="80" y="154" width="68" height="68" rx="8.64" ry="8.64"/>
  <rect class="cls-2" x="154" y="154" width="68" height="68" rx="8.64" ry="8.64"/>
  <rect class="cls-2" x="228" y="154" width="68" height="68" rx="8.64" ry="8.64"/>
  <rect class="cls-2" x="302" y="154" width="68" height="68" rx="8.64" ry="8.64"/>
  <rect class="cls-2" x="376" y="154" width="68" height="68" rx="8.64" ry="8.64"/>
  <rect class="cls-2" x="6" y="228" width="68" height="68" rx="8.64" ry="8.64"/>
  <rect class="cls-2" x="80" y="228" width="68" height="68" rx="8.64" ry="8.64"/>
  <rect class="cls-2" x="154" y="228" width="68" height="68" rx="8.64" ry="8.64"/>
  <rect class="cls-2" x="228" y="228" width="68" height="68" rx="8.64" ry="8.64"/>
  <rect class="cls-2" x="302" y="228" width="68" height="68" rx="8.64" ry="8.64"/>
  <rect class="cls-2" x="376" y="228" width="68" height="68" rx="8.64" ry="8.64"/>
  <rect class="cls-2" x="6" y="302" width="68" height="68" rx="8.64" ry="8.64"/>
  <rect class="cls-2" x="80" y="302" width="68" height="68" rx="8.64" ry="8.64"/>
  <rect class="cls-2" x="154" y="302" width="68" height="68" rx="8.64" ry="8.64"/>
  <rect class="cls-2" x="228" y="302" width="68" height="68" rx="8.64" ry="8.64"/>
  <rect class="cls-2" x="302" y="302" width="68" height="68" rx="8.64" ry="8.64"/>
  <rect class="cls-2" x="376" y="302" width="68" height="68" rx="8.64" ry="8.64"/>
  <rect class="cls-2" x="6" y="376" width="68" height="68" rx="8.64" ry="8.64"/>
  <rect class="cls-2" x="80" y="376" width="68" height="68" rx="8.64" ry="8.64"/>
  <rect class="cls-2" x="154" y="376" width="68" height="68" rx="8.64" ry="8.64"/>
  <rect class="cls-2" x="228" y="376" width="68" height="68" rx="8.64" ry="8.64"/>
  <rect class="cls-2" x="302" y="376" width="68" height="68" rx="8.64" ry="8.64"/>
  <rect class="cls-2" x="376" y="376" width="68" height="68" rx="8.64" ry="8.64"/>
</svg>
