<?xml version="1.0" encoding="UTF-8"?>
<svg xmlns="http://www.w3.org/2000/svg" viewBox="0 0 450 450">
  <defs>
    <style>
      .cls-1 { fill: #bbaea0; }
      .cls-2 { fill: #d6cdc4; }
    </style>
  </defs>
  <rect class="cls-1" width="450" height="450" rx="7.6" ry="7.6"/>
  <rect class="cls-1" x="7" y="7" width="435" height="435" rx="7.6" ry="7.6"/>
  <rect class="cls-2" x="7" y="7" width="50" height="50" rx="8.64" ry="8.64"/>
  <rect class="cls-2" x="62" y="7" width="50" height="50" rx="8.64" ry="8.64"/>
  <rect class="cls-2" x="117" y="7" width="50" height="50" rx="8.64" ry="8.64"/>
  <rect class="cls-2" x="172" y="7" width="50" height="50" rx="8.64" ry="8.64"/>
  <rect class="cls-2" x="227" y="7" width="50" height="50" rx="8.64" ry="8.64"/>
  <rect class="cls-2" x="282" y="7" width="50" height="50" rx="8.64" ry="8.64"/>
  <rect class="cls-2" x="337" y="7" width="50" height="50" rx="8.64" ry="8.64"/>
  <rect class="cls-2" x="392" y="7" width="50" height="50" rx="8.64" ry="8.64"/>
  <rect class="cls-2" x="7" y="62" width="50" height="50" rx="8.64" ry="8.64"/>
  <rect class="cls-2" x="62" y="62" width="50" height="50" rx="8.64" ry="8.64"/>
  <rect class="cls-2" x="117" y="62" width="50" height="50" rx="8.64" ry="8.64"/>
  <rect class="cls-2" x="172" y="62" width="50" height="50" rx="8.64" ry="8.64"/>
  <rect class="cls-2" x="227" y="62" width="50" height="50" rx="8.64" ry="8.64"/>
  <rect class="cls-2" x="282" y="62" width="50" height="50" rx="8.64" ry="8.64"/>
  <rect class="cls-2" x="337" y="62" width="50" height="50" rx="8.64" ry="8.64"/>
  <rect class="cls-2" x="392" y="62" width="50" height="50" rx="8.64" ry="8.64"/>
  <rect class="cls-2" x="7" y="117" width="50" height="50" rx="8.64" ry="8.64"/>
  <rect class="cls-2" x="62" y="117" width="50" height="50" rx="8.64" ry="8.64"/>
  <rect class="cls-2" x="117" y="117" width="50" height="50" rx="8.64" ry="8.64"/>
  <rect class="cls-2" x="172" y="117" width="50" height="50" rx="8.64" ry="8.64"/>
  <rect class="cls-2" x="227" y="117" width="50" height="50" rx="8.64" ry="8.64"/>
  <rect class="cls-2" x="282" y="117" width="50" height="50" rx="8.64" ry="8.64"/>
  <rect class="cls-2" x="337" y="117" width="50" height="50" rx="8.64" ry="8.64"/>
  <rect class="cls-2" x="392" y="117" width="50" height="50" rx="8.64" ry="8.64"/>
  <rect class="cls-2" x="7" y="172" width="50" height="50" rx="8.64" ry="8.64"/>
  <rect class="cls-2" x="62" y="172" width="50" height="50" rx="8.64" ry="8.64"/>
  <rect class="cls-2" x="117" y="172" width="50" height="50" rx="8.64" ry="8.64"/>
  <rect class="cls-2" x="172" y="172" width="50" height="50" rx="8.64" ry="8.64"/>
  <rect class="cls-2" x="227" y="172" width="50" height="50" rx="8.64" ry="8.64"/>
  <rect class="cls-2" x="282" y="172" width="50" height="50" rx="8.64" ry="8.64"/>
  <rect class="cls-2" x="337" y="172" width="50" height="50" rx="8.64" ry="8.64"/>
  <rect class="cls-2" x="392" y="172" width="50" height="50" rx="8.64" ry="8.64"/>
  <rect class="cls-2" x="7" y="227" width="50" height="50" rx="8.64" ry="8.64"/>
  <rect class="cls-2" x="62" y="227" width="50" height="50" rx="8.64" ry="8.64"/>
  <rect class="cls-2" x="117" y="227" width="50" height="50" rx="8.64" ry="8.64"/>
  <rect class="cls-2" x="172" y="227" width="50" height="50" rx="8.64" ry="8.64"/>
  <rect class="cls-2" x="227" y="227" width="50" height="50" rx="8.64" ry="8.64"/>
  <rect class="cls-2" x="282" y="227" width="50" height="50" rx="8.64" ry="8.64"/>
  <rect class="cls-2" x="337" y="227" width="50" height="50" rx="8.64" ry="8.64"/>
  <rect class="cls-2" x="392" y="227" width="50" height="50" rx="8.64" ry="8.64"/>
  <rect class="cls-2" x="7" y="282" width="50" height="50" rx="8.64" ry="8.64"/>
  <rect class="cls-2" x="62" y="282" width="50" height="50" rx="8.64" ry="8.64"/>
  <rect class="cls-2" x="117" y="282" width="50" height="50" rx="8.64" ry="8.64"/>
  <rect class="cls-2" x="172" y="282" width="50" height="50" rx="8.64" ry="8.64"/>
  <rect class="cls-2" x="227" y="282" width="50" height="50" rx="8.64" ry="8.64"/>
  <rect class="cls-2" x="282" y="282" width="50" height="50" rx="8.64" ry="8.64"/>
  <rect class="cls-2" x="337" y="282" width="50" height="50" rx="8.64" ry="8.64"/>
  <rect class="cls-2" x="392" y="282" width="50" height="50" rx="8.64" ry="8.64"/>
  <rect class="cls-2" x="7" y="337" width="50" height="50" rx="8.64" ry="8.64"/>
  <rect class="cls-2" x="62" y="337" width="50" height="50" rx="8.64" ry="8.64"/>
  <rect class="cls-2" x="117" y="337" width="50" height="50" rx="8.64" ry="8.64"/>
  <rect class="cls-2" x="172" y="337" width="50" height="50" rx="8.64" ry="8.64"/>
  <rect class="cls-2" x="227" y="337" width="50" height="50" rx="8.64" ry="8.64"/>
  <rect class="cls-2" x="282" y="337" width="50" height="50" rx="8.64" ry="8.64"/>
  <rect class="cls-2" x="337" y="337" width="50" height="50" rx="8.64" ry="8.64"/>
  <rect class="cls-2" x="392" y="337" width="50" height="50" rx="8.64" ry="8.64"/>
  <rect class="cls-2" x="7" y="392" width="50" height="50" rx="8.64" ry="8.64"/>
  <rect class="cls-2" x="62" y="392" width="50" height="50" rx="8.64" ry="8.64"/>
  <rect class="cls-2" x="117" y="392" width="50" height="50" rx="8.64" ry="8.64"/>
  <rect class="cls-2" x="172" y="392" width="50" height="50" rx="8.64" ry="8.64"/>
  <rect class="cls-2" x="227" y="392" width="50" height="50" rx="8.64" ry="8.64"/>
  <rect class="cls-2" x="282" y="392" width="50" height="50" rx="8.64" ry="8.64"/>
  <rect class="cls-2" x="337" y="392" width="50" height="50" rx="8.64" ry="8.64"/>
  <rect class="cls-2" x="392" y="392" width="50" height="50" rx="8.64" ry="8.64"/>
</svg>
