<?xml version="1.0" encoding="UTF-8"?>
<svg xmlns="http://www.w3.org/2000/svg" viewBox="0 0 450 450">
  <defs>
    <style>
      .cls-1 { fill: #bbaea0; }
      .cls-2 { fill: #d6cdc4; }
    </style>
  </defs>
  <rect class="cls-1" width="450" height="450" rx="7.6" ry="7.6"/>
  <rect class="cls-1" x="2" y="2" width="445" height="445" rx="7.6" ry="7.6"/>
  <rect class="cls-2" x="2" y="2" width="53" height="53" rx="8.64" ry="8.64"/>
  <rect class="cls-2" x="58" y="2" width="53" height="53" rx="8.64" ry="8.64"/>
  <rect class="cls-2" x="114" y="2" width="53" height="53" rx="8.64" ry="8.64"/>
  <rect class="cls-2" x="170" y="2" width="53" height="53" rx="8.64" ry="8.64"/>
  <rect class="cls-2" x="226" y="2" width="53" height="53" rx="8.64" ry="8.64"/>
  <rect class="cls-2" x="282" y="2" width="53" height="53" rx="8.64" ry="8.64"/>
  <rect class="cls-2" x="338" y="2" width="53" height="53" rx="8.64" ry="8.64"/>
  <rect class="cls-2" x="394" y="2" width="53" height="53" rx="8.64" ry="8.64"/>
  <rect class="cls-2" x="2" y="58" width="53" height="53" rx="8.64" ry="8.64"/>
  <rect class="cls-2" x="58" y="58" width="53" height="53" rx="8.64" ry="8.64"/>
  <rect class="cls-2" x="114" y="58" width="53" height="53" rx="8.64" ry="8.64"/>
  <rect class="cls-2" x="170" y="58" width="53" height="53" rx="8.64" ry="8.64"/>
  <rect class="cls-2" x="226" y="58" width="53" height="53" rx="8.64" ry="8.64"/>
  <rect class="cls-2" x="282" y="58" width="53" height="53" rx="8.64" ry="8.64"/>
  <rect class="cls-2" x="338" y="58" width="53" height="53" rx="8.64" ry="8.64"/>
  <rect class="cls-2" x="394" y="58" width="53" height="53" rx="8.64" ry="8.64"/>
  <rect class="cls-2" x="2" y="114" width="53" height="53" rx="8.64" ry="8.64"/>
  <rect class="cls-2" x="58" y="114" width="53" height="53" rx="8.64" ry="8.64"/>
  <rect class="cls-2" x="114" y="114" width="53" height="53" rx="8.64" ry="8.64"/>
  <rect class="cls-2" x="170" y="114" width="53" height="53" rx="8.64" ry="8.64"/>
  <rect class="cls-2" x="226" y="114" width="53" height="53" rx="8.64" ry="8.64"/>
  <rect class="cls-2" x="282" y="114" width="53" height="53" rx="8.64" ry="8.64"/>
  <rect class="cls-2" x="338" y="114" width="53" height="53" rx="8.64" ry="8.64"/>
  <rect class="cls-2" x="394" y="114" width="53" height="53" rx="8.64" ry="8.64"/>
  <rect class="cls-2" x="2" y="170" width="53" height="53" rx="8.64" ry="8.64"/>
  <rect class="cls-2" x="58" y="170" width="53" height="53" rx="8.64" ry="8.64"/>
  <rect class="cls-2" x="114" y="170" width="53" height="53" rx="8.64" ry="8.64"/>
  <rect class="cls-2" x="170" y="170" width="53" height="53" rx="8.64" ry="8.64"/>
  <rect class="cls-2" x="226" y="170" width="53" height="53" rx="8.64" ry="8.64"/>
  <rect class="cls-2" x="282" y="170" width="53" height="53" rx="8.64" ry="8.64"/>
  <rect class="cls-2" x="338" y="170" width="53" height="53" rx="8.64" ry="8.64"/>
  <rect class="cls-2" x="394" y="170" width="53" height="53" rx="8.64" ry="8.64"/>
  <rect class="cls-2" x="2" y="226" width="53" height="53" rx="8.64" ry="8.64"/>
  <rect class="cls-2" x="58" y="226" width="53" height="53" rx="8.64" ry="8.64"/>
  <rect class="cls-2" x="114" y="226" width="53" height="53" rx="8.64" ry="8.64"/>
  <rect class="cls-2" x="170" y="226" width="53" height="53" rx="8.64" ry="8.64"/>
  <rect class="cls-2" x="226" y="226" width="53" height="53" rx="8.64" ry="8.64"/>
  <rect class="cls-2" x="282" y="226" width="53" height="53" rx="8.64" ry="8.64"/>
  <rect class="cls-2" x="338" y="226" width="53" height="53" rx="8.64" ry="8.64"/>
  <rect class="cls-2" x="394" y="226" width="53" height="53" rx="8.64" ry="8.64"/>
  <rect class="cls-2" x="2" y="282" width="53" height="53" rx="8.64" ry="8.64"/>
  <rect class="cls-2" x="58" y="282" width="53" height="53" rx="8.64" ry="8.64"/>
  <rect class="cls-2" x="114" y="282" width="53" height="53" rx="8.64" ry="8.64"/>
  <rect class="cls-2" x="170" y="282" width="53" height="53" rx="8.64" ry="8.64"/>
  <rect class="cls-2" x="226" y="282" width="53" height="53" rx="8.64" ry="8.64"/>
  <rect class="cls-2" x="282" y="282" width="53" height="53" rx="8.64" ry="8.64"/>
  <rect class="cls-2" x="338" y="282" width="53" height="53" rx="8.64" ry="8.64"/>
  <rect class="cls-2" x="394" y="282" width="53" height="53" rx="8.64" ry="8.64"/>
  <rect class="cls-2" x="2" y="338" width="53" height="53" rx="8.64" ry="8.64"/>
  <rect class="cls-2" x="58" y="338" width="53" height="53" rx="8.64" ry="8.64"/>
  <rect class="cls-2" x="114" y="338" width="53" height="53" rx="8.64" ry="8.64"/>
  <rect class="cls-2" x="170" y="338" width="53" height="53" rx="8.64" ry="8.64"/>
  <rect class="cls-2" x="226" y="338" width="53" height="53" rx="8.64" ry="8.64"/>
  <rect class="cls-2" x="282" y="338" width="53" height="53" rx="8.64" ry="8.64"/>
  <rect class="cls-2" x="338" y="338" width="53" height="53" rx="8.64" ry="8.64"/>
  <rect class="cls-2" x="394" y="338" width="53" height="53" rx="8.64" ry="8.64"/>
  <rect class="cls-2" x="2" y="394" width="53" height="53" rx="8.64" ry="8.64"/>
  <rect class="cls-2" x="58" y="394" width="53" height="53" rx="8.64" ry="8.64"/>
  <rect class="cls-2" x="114" y="394" width="53" height="53" rx="8.64" ry="8.64"/>
  <rect class="cls-2" x="170" y="394" width="53" height="53" rx="8.64" ry="8.64"/>
  <rect class="cls-2" x="226" y="394" width="53" height="53" rx="8.64" ry="8.64"/>
  <rect class="cls-2" x="282" y="394" width="53" height="53" rx="8.64" ry="8.64"/>
  <rect class="cls-2" x="338" y="394" width="53" height="53" rx="8.64" ry="8.64"/>
  <rect class="cls-2" x="394" y="394" width="53" height="53" rx="8.64" ry="8.64"/>
</svg>
