<?xml version="1.0" encoding="UTF-8"?>
<svg id="Livello_2" data-name="Livello 2" xmlns="http://www.w3.org/2000/svg" viewBox="0 0 450 450">
  <defs>
    <style>
      .cls-1 {
        fill: #edcf72;
      }

      .cls-1, .cls-2, .cls-3, .cls-4, .cls-5, .cls-6, .cls-7, .cls-8 {
        stroke-width: 0px;
      }

      .cls-2 {
        fill: #f2b179;
      }

      .cls-3 {
        fill: #f67c5f;
      }

      .cls-4 {
        fill: #eee4da;
      }

      .cls-5 {
        fill: #bbaea0;
      }

      .cls-6 {
        fill: #d6cdc4;
      }

      .cls-7 {
        fill: #f59563;
      }

      .cls-8 {
        fill: #ede0c8;
      }
    </style>
  </defs>
  <g id="MainMenu">
    <g>
      <rect class="cls-5" width="450" height="450" rx="7.6" ry="7.6"/>
      <rect class="cls-6" x="9" y="9" width="80" height="80" rx="8.64" ry="8.64"/>
      <rect class="cls-6" x="97" y="9" width="80" height="80" rx="8.64" ry="8.64"/>
      <rect class="cls-6" x="185" y="9" width="80" height="80" rx="8.64" ry="8.64"/>
      <rect class="cls-6" x="273" y="9" width="80" height="80" rx="8.64" ry="8.64"/>
      <rect class="cls-6" x="361" y="9" width="80" height="80" rx="8.64" ry="8.64"/>
      <rect class="cls-6" x="9" y="97" width="80" height="80" rx="8.64" ry="8.64"/>
      <rect class="cls-6" x="97" y="97" width="80" height="80" rx="8.64" ry="8.64"/>
      <rect class="cls-6" x="185" y="97" width="80" height="80" rx="8.64" ry="8.64"/>
      <rect class="cls-6" x="273" y="97" width="80" height="80" rx="8.64" ry="8.64"/>
      <rect class="cls-6" x="361" y="97" width="80" height="80" rx="8.64" ry="8.64"/>
      <rect class="cls-6" x="9" y="185" width="80" height="80" rx="8.64" ry="8.64"/>
      <rect class="cls-6" x="97" y="185" width="80" height="80" rx="8.64" ry="8.64"/>
      <rect class="cls-6" x="185" y="185" width="80" height="80" rx="8.64" ry="8.64"/>
      <rect class="cls-6" x="273" y="185" width="80" height="80" rx="8.64" ry="8.64"/>
      <rect class="cls-6" x="361" y="185" width="80" height="80" rx="8.64" ry="8.64"/>
      <rect class="cls-6" x="9" y="273" width="80" height="80" rx="8.64" ry="8.64"/>
      <rect class="cls-6" x="97" y="273" width="80" height="80" rx="8.64" ry="8.64"/>
      <rect class="cls-6" x="185" y="273" width="80" height="80" rx="8.64" ry="8.64"/>
      <rect class="cls-6" x="273" y="273" width="80" height="80" rx="8.64" ry="8.64"/>
      <rect class="cls-6" x="361" y="273" width="80" height="80" rx="8.64" ry="8.64"/>
      <rect class="cls-6" x="9" y="361" width="80" height="80" rx="8.64" ry="8.64"/>
      <rect class="cls-6" x="97" y="361" width="80" height="80" rx="8.64" ry="8.64"/>
      <rect class="cls-6" x="185" y="361" width="80" height="80" rx="8.64" ry="8.64"/>
      <rect class="cls-6" x="273" y="361" width="80" height="80" rx="8.64" ry="8.64"/>
      <rect class="cls-6" x="361" y="361" width="80" height="80" rx="8.64" ry="8.64"/>
      <rect class="cls-4" x="9" y="9" width="80" height="80" rx="9" ry="9"/>
      <rect class="cls-4" x="185" y="9" width="80" height="80" rx="9" ry="9"/>
      <rect class="cls-4" x="361" y="9" width="80" height="80" rx="9" ry="9"/>
      <rect class="cls-4" x="97" y="97" width="80" height="80" rx="9" ry="9"/>
      <rect class="cls-4" x="361" y="361" width="80" height="80" rx="9" ry="9"/>
      <rect class="cls-4" x="9" y="273" width="80" height="80" rx="9" ry="9"/>
      <rect class="cls-7" x="361" y="97" width="80" height="80" rx="9" ry="9"/>
      <rect class="cls-7" x="97" y="9" width="80" height="80" rx="9" ry="9"/>
      <rect class="cls-7" x="273" y="185" width="80" height="80" rx="9" ry="9"/>
      <rect class="cls-2" x="273" y="9" width="80" height="80" rx="9" ry="9"/>
      <rect class="cls-2" x="361" y="185" width="80" height="80" rx="9" ry="9"/>
      <rect class="cls-3" x="185" y="97" width="80" height="80" rx="9" ry="9"/>
      <rect class="cls-3" x="273" y="273" width="80" height="80" rx="9" ry="9"/>
      <rect class="cls-8" x="361" y="273" width="80" height="80" rx="9" ry="9"/>
      <rect class="cls-1" x="273" y="97" width="80" height="80" rx="9" ry="9"/>
      <rect class="cls-1" x="185" y="185" width="80" height="80" rx="9" ry="9"/>
    </g>
  </g>
</svg>