<?xml version="1.0" encoding="UTF-8"?>
<svg id="Livello_2" data-name="Livello 2" xmlns="http://www.w3.org/2000/svg" viewBox="0 0 450 450">
  <defs>
    <style>
      .cls-1 {
        fill: #edcf72;
      }

      .cls-1, .cls-2, .cls-3, .cls-4, .cls-5, .cls-6, .cls-7, .cls-8, .cls-9, .cls-10 {
        stroke-width: 0px;
      }

      .cls-2 {
        fill: #f2b179;
      }

      .cls-3 {
        fill: #f67c5f;
      }

      .cls-4 {
        fill: #edc850;
      }

      .cls-5 {
        fill: #eee4da;
      }

      .cls-6 {
        fill: #bbaea0;
      }

      .cls-7 {
        fill: #d6cdc4;
      }

      .cls-8 {
        fill: #f65e3b;
      }

      .cls-9 {
        fill: #f59563;
      }

      .cls-10 {
        fill: #ede0c8;
      }
    </style>
  </defs>
  <g id="MainMenu">
    <g>
      <rect class="cls-6" width="450" height="450" rx="7.6" ry="7.6"/>
      <rect class="cls-6" x="7" y="7" width="436" height="436" rx="7.6" ry="7.6"/>
      <rect class="cls-7" x="7" y="7" width="51" height="51" rx="8.64" ry="8.64"/>
      <rect class="cls-7" x="62" y="7" width="51" height="51" rx="8.64" ry="8.64"/>
      <rect class="cls-7" x="117" y="7" width="51" height="51" rx="8.64" ry="8.64"/>
      <rect class="cls-7" x="172" y="7" width="51" height="51" rx="8.64" ry="8.64"/>
      <rect class="cls-7" x="227" y="7" width="51" height="51" rx="8.64" ry="8.64"/>
      <rect class="cls-7" x="282" y="7" width="51" height="51" rx="8.64" ry="8.64"/>
      <rect class="cls-7" x="337" y="7" width="51" height="51" rx="8.64" ry="8.64"/>
      <rect class="cls-7" x="392" y="7" width="51" height="51" rx="8.64" ry="8.64"/>
      <rect class="cls-7" x="7" y="62" width="51" height="51" rx="8.64" ry="8.64"/>
      <rect class="cls-7" x="62" y="62" width="51" height="51" rx="8.64" ry="8.64"/>
      <rect class="cls-7" x="117" y="62" width="51" height="51" rx="8.64" ry="8.64"/>
      <rect class="cls-7" x="172" y="62" width="51" height="51" rx="8.64" ry="8.64"/>
      <rect class="cls-7" x="227" y="62" width="51" height="51" rx="8.64" ry="8.64"/>
      <rect class="cls-7" x="282" y="62" width="51" height="51" rx="8.64" ry="8.64"/>
      <rect class="cls-7" x="337" y="62" width="51" height="51" rx="8.64" ry="8.64"/>
      <rect class="cls-7" x="392" y="62" width="51" height="51" rx="8.64" ry="8.64"/>
      <rect class="cls-7" x="7" y="117" width="51" height="51" rx="8.64" ry="8.64"/>
      <rect class="cls-7" x="62" y="117" width="51" height="51" rx="8.64" ry="8.64"/>
      <rect class="cls-7" x="117" y="117" width="51" height="51" rx="8.64" ry="8.64"/>
      <rect class="cls-7" x="172" y="117" width="51" height="51" rx="8.64" ry="8.64"/>
      <rect class="cls-7" x="227" y="117" width="51" height="51" rx="8.64" ry="8.64"/>
      <rect class="cls-7" x="282" y="117" width="51" height="51" rx="8.64" ry="8.64"/>
      <rect class="cls-7" x="337" y="117" width="51" height="51" rx="8.64" ry="8.64"/>
      <rect class="cls-7" x="392" y="117" width="51" height="51" rx="8.64" ry="8.64"/>
      <rect class="cls-7" x="7" y="172" width="51" height="51" rx="8.64" ry="8.64"/>
      <rect class="cls-7" x="62" y="172" width="51" height="51" rx="8.64" ry="8.64"/>
      <rect class="cls-7" x="117" y="172" width="51" height="51" rx="8.64" ry="8.64"/>
      <rect class="cls-7" x="172" y="172" width="51" height="51" rx="8.64" ry="8.64"/>
      <rect class="cls-7" x="227" y="172" width="51" height="51" rx="8.64" ry="8.64"/>
      <rect class="cls-7" x="282" y="172" width="51" height="51" rx="8.64" ry="8.64"/>
      <rect class="cls-7" x="337" y="172" width="51" height="51" rx="8.64" ry="8.64"/>
      <rect class="cls-7" x="392" y="172" width="51" height="51" rx="8.64" ry="8.64"/>
      <rect class="cls-7" x="7" y="227" width="51" height="51" rx="8.64" ry="8.64"/>
      <rect class="cls-7" x="62" y="227" width="51" height="51" rx="8.64" ry="8.64"/>
      <rect class="cls-7" x="117" y="227" width="51" height="51" rx="8.64" ry="8.64"/>
      <rect class="cls-7" x="172" y="227" width="51" height="51" rx="8.64" ry="8.64"/>
      <rect class="cls-7" x="227" y="227" width="51" height="51" rx="8.64" ry="8.64"/>
      <rect class="cls-7" x="282" y="227" width="51" height="51" rx="8.64" ry="8.64"/>
      <rect class="cls-7" x="337" y="227" width="51" height="51" rx="8.64" ry="8.64"/>
      <rect class="cls-7" x="392" y="227" width="51" height="51" rx="8.64" ry="8.64"/>
      <rect class="cls-7" x="7" y="282" width="51" height="51" rx="8.64" ry="8.64"/>
      <rect class="cls-7" x="62" y="282" width="51" height="51" rx="8.64" ry="8.64"/>
      <rect class="cls-7" x="117" y="282" width="51" height="51" rx="8.64" ry="8.64"/>
      <rect class="cls-7" x="172" y="282" width="51" height="51" rx="8.64" ry="8.64"/>
      <rect class="cls-7" x="227" y="282" width="51" height="51" rx="8.64" ry="8.64"/>
      <rect class="cls-7" x="282" y="282" width="51" height="51" rx="8.64" ry="8.64"/>
      <rect class="cls-7" x="337" y="282" width="51" height="51" rx="8.64" ry="8.64"/>
      <rect class="cls-7" x="392" y="282" width="51" height="51" rx="8.64" ry="8.64"/>
      <rect class="cls-7" x="7" y="337" width="51" height="51" rx="8.64" ry="8.64"/>
      <rect class="cls-7" x="62" y="337" width="51" height="51" rx="8.64" ry="8.64"/>
      <rect class="cls-7" x="117" y="337" width="51" height="51" rx="8.64" ry="8.64"/>
      <rect class="cls-7" x="172" y="337" width="51" height="51" rx="8.64" ry="8.64"/>
      <rect class="cls-7" x="227" y="337" width="51" height="51" rx="8.64" ry="8.64"/>
      <rect class="cls-7" x="282" y="337" width="51" height="51" rx="8.64" ry="8.64"/>
      <rect class="cls-7" x="337" y="337" width="51" height="51" rx="8.64" ry="8.64"/>
      <rect class="cls-7" x="392" y="337" width="51" height="51" rx="8.64" ry="8.64"/>
      <rect class="cls-7" x="7" y="392" width="51" height="51" rx="8.64" ry="8.64"/>
      <rect class="cls-7" x="62" y="392" width="51" height="51" rx="8.64" ry="8.64"/>
      <rect class="cls-7" x="117" y="392" width="51" height="51" rx="8.64" ry="8.64"/>
      <rect class="cls-7" x="172" y="392" width="51" height="51" rx="8.64" ry="8.64"/>
      <rect class="cls-7" x="227" y="392" width="51" height="51" rx="8.64" ry="8.64"/>
      <rect class="cls-7" x="282" y="392" width="51" height="51" rx="8.64" ry="8.64"/>
      <rect class="cls-7" x="337" y="392" width="51" height="51" rx="8.64" ry="8.64"/>
      <rect class="cls-7" x="392" y="392" width="51" height="51" rx="8.64" ry="8.64"/>
      <rect class="cls-5" x="392" y="392" width="51" height="51" rx="9" ry="9"/>
      <rect class="cls-5" x="337" y="337" width="51" height="51" rx="9" ry="9"/>
      <rect class="cls-5" x="117" y="392" width="51" height="51" rx="9" ry="9"/>
      <rect class="cls-5" x="7" y="282" width="51" height="51" rx="9" ry="9"/>
      <rect class="cls-5" x="117" y="117" width="51" height="51" rx="9" ry="9"/>
      <rect class="cls-10" x="62" y="227" width="51" height="51" rx="9" ry="9"/>
      <rect class="cls-10" x="7" y="392" width="51" height="51" rx="9" ry="9"/>
      <rect class="cls-10" x="172" y="282" width="51" height="51" rx="9" ry="9"/>
      <rect class="cls-10" x="227" y="337" width="51" height="51" rx="9" ry="9"/>
      <rect class="cls-10" x="337" y="392" width="51" height="51" rx="9" ry="9"/>
      <rect class="cls-2" x="227" y="392" width="51" height="51" rx="9" ry="9"/>
      <rect class="cls-2" x="117" y="337" width="51" height="51" rx="9" ry="9"/>
      <rect class="cls-2" x="117" y="227" width="51" height="51" rx="9" ry="9"/>
      <rect class="cls-2" x="62" y="172" width="51" height="51" rx="9" ry="9"/>
      <rect class="cls-2" x="7" y="62" width="51" height="51" rx="9" ry="9"/>
      <rect class="cls-9" x="282" y="392" width="51" height="51" rx="9" ry="9"/>
      <rect class="cls-9" x="172" y="392" width="51" height="51" rx="9" ry="9"/>
      <rect class="cls-9" x="62" y="337" width="51" height="51" rx="9" ry="9"/>
      <rect class="cls-9" x="7" y="227" width="51" height="51" rx="9" ry="9"/>
      <rect class="cls-3" x="7" y="337" width="51" height="51" rx="9" ry="9"/>
      <rect class="cls-3" x="62" y="392" width="51" height="51" rx="9" ry="9"/>
      <rect class="cls-3" x="117" y="172" width="51" height="51" rx="9" ry="9"/>
      <rect class="cls-8" x="117" y="282" width="51" height="51" rx="9" ry="9"/>
      <rect class="cls-8" x="62" y="282" width="51" height="51" rx="9" ry="9"/>
      <rect class="cls-1" x="7" y="117" width="51" height="51" rx="9" ry="9"/>
      <rect class="cls-1" x="172" y="337" width="51" height="51" rx="9" ry="9"/>
      <rect class="cls-4" x="7" y="172" width="51" height="51" rx="9" ry="9"/>
    </g>
  </g>
</svg>