<?xml version="1.0" encoding="UTF-8"?>
<svg id="Livello_2" data-name="Livello 2" xmlns="http://www.w3.org/2000/svg" viewBox="0 0 450 450">
  <defs>
    <style>
      .cls-1 {
        fill: #f2b179;
      }

      .cls-1, .cls-2, .cls-3, .cls-4, .cls-5, .cls-6, .cls-7 {
        stroke-width: 0px;
      }

      .cls-8 {
        fill: #71706b;
      }

      .cls-8, .cls-9 {
        font-family: ClearSans-Bold, 'Clear Sans';
        font-size: 48px;
        font-weight: 700;
      }

      .cls-2 {
        fill: #f67c5f;
      }

      .cls-9 {
        fill: #fff;
      }

      .cls-3 {
        fill: #eee4da;
      }

      .cls-4 {
        fill: #bbaea0;
      }

      .cls-5 {
        fill: #d6cdc4;
      }

      .cls-6 {
        fill: #f59563;
      }

      .cls-7 {
        fill: #ede0c8;
      }
    </style>
  </defs>
  <g id="MainMenu">
    <rect class="cls-4" width="450" height="450" rx="7.6" ry="7.6"/>
    <rect class="cls-5" x="10.25" y="8" width="100" height="100" rx="9" ry="9"/>
    <rect class="cls-5" x="119.25" y="8" width="100" height="100" rx="9" ry="9"/>
    <rect class="cls-5" x="229" y="8" width="100" height="100" rx="9" ry="9"/>
    <rect class="cls-5" x="339.25" y="8" width="100" height="100" rx="9" ry="9"/>
    <rect class="cls-5" x="10.25" y="118.02" width="100" height="100" rx="9" ry="9"/>
    <rect class="cls-5" x="119.5" y="118" width="100" height="100" rx="9" ry="9"/>
    <rect class="cls-5" x="229.5" y="118" width="100" height="100" rx="9" ry="9"/>
    <rect class="cls-5" x="339.5" y="118" width="100" height="100" rx="9" ry="9"/>
    <rect class="cls-5" x="10.25" y="228" width="100" height="100" rx="9" ry="9"/>
    <rect class="cls-5" x="119.25" y="228" width="100" height="100" rx="9" ry="9"/>
    <rect class="cls-5" x="229.25" y="228" width="100" height="100" rx="9" ry="9"/>
    <rect class="cls-5" x="339.25" y="228" width="100" height="100" rx="9" ry="9"/>
    <rect class="cls-5" x="10.25" y="338" width="100" height="100" rx="9" ry="9"/>
    <rect class="cls-5" x="119.75" y="338" width="100" height="100" rx="9" ry="9"/>
    <rect class="cls-5" x="229.75" y="338" width="100" height="100" rx="9" ry="9"/>
    <rect class="cls-5" x="339.75" y="338" width="100" height="100" rx="9" ry="9"/>
    <rect class="cls-6" x="10.25" y="8.02" width="100" height="100" rx="9" ry="9"/>
    <rect class="cls-6" x="119.25" y="228.02" width="100" height="100" rx="9" ry="9"/>
    <rect class="cls-1" x="119.25" y="8.02" width="100" height="100" rx="9" ry="9"/>
    <rect class="cls-1" x="10.25" y="228.02" width="100" height="100" rx="9" ry="9"/>
    <rect class="cls-3" x="119.25" y="118.02" width="100" height="100" rx="9" ry="9"/>
    <rect class="cls-3" x="229.25" y="118.02" width="100" height="100" rx="9" ry="9"/>
    <rect class="cls-2" x="10.25" y="118.02" width="100" height="100" rx="9" ry="9"/>
    <rect class="cls-7" x="229.25" y="8.02" width="100" height="100" rx="9" ry="9"/>
    <rect class="cls-7" x="339.25" y="8.02" width="100" height="100" rx="9" ry="9"/>
    <rect class="cls-7" x="10.25" y="338.02" width="100" height="100" rx="9" ry="9"/>
    <text class="cls-9" transform="translate(28.35 70.82)"><tspan x="0" y="0">16</tspan></text>
    <text class="cls-9" transform="translate(138.24 294.33)"><tspan x="0" y="0">16</tspan></text>
    <text class="cls-9" transform="translate(154.77 70.93)"><tspan x="0" y="0">8</tspan></text>
    <text class="cls-9" transform="translate(46.77 290.93)"><tspan x="0" y="0">8</tspan></text>
    <text class="cls-9" transform="translate(30.47 179.28)"><tspan x="0" y="0">32</tspan></text>
    <text class="cls-8" transform="translate(156.98 179.9)"><tspan x="0" y="0">2</tspan></text>
    <text class="cls-8" transform="translate(264.09 179.9)"><tspan x="0" y="0">2</tspan></text>
    <text class="cls-8" transform="translate(263.64 72.1)"><tspan x="0" y="0">4</tspan></text>
    <text class="cls-8" transform="translate(371.89 71.72)"><tspan x="0" y="0">4</tspan></text>
    <text class="cls-8" transform="translate(43.05 398.85)"><tspan x="0" y="0">4</tspan></text>
  </g>
</svg>