<?xml version="1.0" encoding="UTF-8"?>
<svg id="Livello_2" data-name="Livello 2" xmlns="http://www.w3.org/2000/svg" viewBox="0 0 450 450">
  <defs>
    <style>
      .cls-1 {
        fill: #edcf72;
      }

      .cls-1, .cls-2, .cls-3, .cls-4, .cls-5, .cls-6, .cls-7, .cls-8, .cls-9, .cls-10 {
        stroke-width: 0px;
      }

      .cls-2 {
        fill: #f2b179;
      }

      .cls-3 {
        fill: #f67c5f;
      }

      .cls-4 {
        fill: #eee4da;
      }

      .cls-5 {
        fill: #edcc61;
      }

      .cls-6 {
        fill: #bbaea0;
      }

      .cls-7 {
        fill: #d6cdc4;
      }

      .cls-8 {
        fill: #f65e3b;
      }

      .cls-9 {
        fill: #f59563;
      }

      .cls-10 {
        fill: #ede0c8;
      }
    </style>
  </defs>
  <g id="MainMenu">
    <rect class="cls-6" width="450" height="450" rx="7.6" ry="7.6"/>
    <rect class="cls-6" x="6" y="6" width="438" height="438" rx="7.6" ry="7.6"/>
    <rect class="cls-7" x="6" y="6" width="68" height="68" rx="8.64" ry="8.64"/>
    <rect class="cls-7" x="80" y="6" width="68" height="68" rx="8.64" ry="8.64"/>
    <rect class="cls-7" x="154" y="6" width="68" height="68" rx="8.64" ry="8.64"/>
    <rect class="cls-7" x="228" y="6" width="68" height="68" rx="8.64" ry="8.64"/>
    <rect class="cls-7" x="302" y="6" width="68" height="68" rx="8.64" ry="8.64"/>
    <rect class="cls-7" x="376" y="6" width="68" height="68" rx="8.64" ry="8.64"/>
    <rect class="cls-7" x="6" y="80" width="68" height="68" rx="8.64" ry="8.64"/>
    <rect class="cls-7" x="80" y="80" width="68" height="68" rx="8.64" ry="8.64"/>
    <rect class="cls-7" x="154" y="80" width="68" height="68" rx="8.64" ry="8.64"/>
    <rect class="cls-7" x="228" y="80" width="68" height="68" rx="8.64" ry="8.64"/>
    <rect class="cls-7" x="302" y="80" width="68" height="68" rx="8.64" ry="8.64"/>
    <rect class="cls-7" x="376" y="80" width="68" height="68" rx="8.64" ry="8.64"/>
    <rect class="cls-7" x="6" y="154" width="68" height="68" rx="8.64" ry="8.64"/>
    <rect class="cls-7" x="80" y="154" width="68" height="68" rx="8.64" ry="8.64"/>
    <rect class="cls-7" x="154" y="154" width="68" height="68" rx="8.64" ry="8.64"/>
    <rect class="cls-7" x="228" y="154" width="68" height="68" rx="8.64" ry="8.64"/>
    <rect class="cls-7" x="302" y="154" width="68" height="68" rx="8.64" ry="8.64"/>
    <rect class="cls-7" x="376" y="154" width="68" height="68" rx="8.64" ry="8.64"/>
    <rect class="cls-7" x="6" y="228" width="68" height="68" rx="8.64" ry="8.64"/>
    <rect class="cls-7" x="80" y="228" width="68" height="68" rx="8.64" ry="8.64"/>
    <rect class="cls-7" x="154" y="228" width="68" height="68" rx="8.64" ry="8.64"/>
    <rect class="cls-7" x="228" y="228" width="68" height="68" rx="8.64" ry="8.64"/>
    <rect class="cls-7" x="302" y="228" width="68" height="68" rx="8.64" ry="8.64"/>
    <rect class="cls-7" x="376" y="228" width="68" height="68" rx="8.64" ry="8.64"/>
    <rect class="cls-7" x="6" y="302" width="68" height="68" rx="8.64" ry="8.64"/>
    <rect class="cls-7" x="80" y="302" width="68" height="68" rx="8.64" ry="8.64"/>
    <rect class="cls-7" x="154" y="302" width="68" height="68" rx="8.64" ry="8.64"/>
    <rect class="cls-7" x="228" y="302" width="68" height="68" rx="8.64" ry="8.64"/>
    <rect class="cls-7" x="302" y="302" width="68" height="68" rx="8.64" ry="8.64"/>
    <rect class="cls-7" x="376" y="302" width="68" height="68" rx="8.64" ry="8.64"/>
    <rect class="cls-7" x="6" y="376" width="68" height="68" rx="8.64" ry="8.64"/>
    <rect class="cls-7" x="80" y="376" width="68" height="68" rx="8.64" ry="8.64"/>
    <rect class="cls-7" x="154" y="376" width="68" height="68" rx="8.64" ry="8.64"/>
    <rect class="cls-7" x="228" y="376" width="68" height="68" rx="8.64" ry="8.64"/>
    <rect class="cls-7" x="302" y="376" width="68" height="68" rx="8.64" ry="8.64"/>
    <rect class="cls-7" x="376" y="376" width="68" height="68" rx="8.64" ry="8.64"/>
    <rect class="cls-4" x="302" y="6" width="68" height="68" rx="9" ry="9"/>
    <rect class="cls-4" x="376" y="80" width="68" height="68" rx="9" ry="9"/>
    <rect class="cls-4" x="228" y="80" width="68" height="68" rx="9" ry="9"/>
    <rect class="cls-4" x="154" y="154" width="68" height="68" rx="9" ry="9"/>
    <rect class="cls-4" x="376" y="302" width="68" height="68" rx="9" ry="9"/>
    <rect class="cls-4" x="80" y="302" width="68" height="68" rx="9" ry="9"/>
    <rect class="cls-10" x="376" y="6" width="68" height="68" rx="9" ry="9"/>
    <rect class="cls-10" x="376" y="154" width="68" height="68" rx="9" ry="9"/>
    <rect class="cls-10" x="302" y="376" width="68" height="68" rx="9" ry="9"/>
    <rect class="cls-10" x="80" y="376" width="68" height="68" rx="9" ry="9"/>
    <rect class="cls-10" x="6" y="376" width="68" height="68" rx="9" ry="9"/>
    <rect class="cls-10" x="228" y="228" width="68" height="68" rx="9" ry="9"/>
    <rect class="cls-2" x="302" y="80" width="68" height="68" rx="9" ry="9"/>
    <rect class="cls-2" x="154" y="376" width="68" height="68" rx="9" ry="9"/>
    <rect class="cls-9" x="376" y="376" width="68" height="68" rx="9" ry="9"/>
    <rect class="cls-9" x="154" y="228" width="68" height="68" rx="9" ry="9"/>
    <rect class="cls-9" x="302" y="228" width="68" height="68" rx="9" ry="9"/>
    <rect class="cls-3" x="154" y="302" width="68" height="68" rx="9" ry="9"/>
    <rect class="cls-3" x="228" y="376" width="68" height="68" rx="9" ry="9"/>
    <rect class="cls-3" x="302" y="302" width="68" height="68" rx="9" ry="9"/>
    <rect class="cls-3" x="228" y="154" width="68" height="68" rx="9" ry="9"/>
    <rect class="cls-8" x="376" y="228" width="68" height="68" rx="9" ry="9"/>
    <rect class="cls-1" x="228" y="303" width="68" height="68" rx="9" ry="9"/>
    <rect class="cls-5" x="302" y="154" width="68" height="68" rx="9" ry="9"/>
  </g>
</svg>