<?xml version="1.0" encoding="UTF-8"?>
<svg id="Livello_2" data-name="Livello 2" xmlns="http://www.w3.org/2000/svg" viewBox="0 0 50 50">
  <defs>
    <style>
      .cls-1 {
        fill: #d6cec5;
      }

      .cls-1, .cls-2 {
        stroke-width: 0px;
      }

      .cls-2 {
        fill: #faf8ef;
        fill-rule: evenodd;
      }
    </style>
  </defs>
  <g id="Livello_1-2" data-name="Livello 1">
    <rect class="cls-1" width="50" height="50" rx="9" ry="9"/>
    <g>
      <path class="cls-2" d="M7.42,18.03c.21-.91.46-1.82.82-2.7,1.45-3.58,4.02-6.59,7.33-8.58,3.31-1.99,7.18-2.85,11.02-2.44,3.84.4,7.45,2.05,10.27,4.68,2.13,1.99,3.73,4.46,4.68,7.19l4.55-.55c.87-.11,1.52.79,1.14,1.58l-5.24,10.94c-.35.73-1.34.85-1.86.23l-7.71-9.36c-.56-.68-.15-1.7.72-1.81l3.9-.48c-.73-1.7-1.81-3.25-3.18-4.53-2.13-1.98-4.84-3.22-7.74-3.53-2.89-.3-5.81.34-8.3,1.84-2.49,1.5-4.43,3.77-5.53,6.47-.32.8-.54,1.63-.69,2.47l-4.19-1.42Z"/>
      <path class="cls-2" d="M42.68,31.47c-.21.91-.46,1.82-.82,2.7-1.45,3.58-4.02,6.59-7.33,8.58-3.31,1.99-7.18,2.85-11.02,2.44-3.84-.4-7.45-2.05-10.27-4.68-2.13-1.99-3.73-4.46-4.68-7.19l-4.55.55c-.87.11-1.52-.79-1.14-1.58l5.24-10.94c.35-.73,1.34-.85,1.86-.23l7.71,9.36c.56.68.15,1.7-.72,1.81l-3.9.48c.73,1.7,1.81,3.25,3.18,4.53,2.13,1.98,4.84,3.22,7.74,3.53,2.89.3,5.81-.34,8.3-1.84,2.49-1.5,4.43-3.77,5.53-6.47.32-.8.54-1.63.69-2.47l4.19,1.42Z"/>
    </g>
  </g>
</svg>