<?xml version="1.0" encoding="UTF-8"?>
<svg id="Livello_2" data-name="Livello 2" xmlns="http://www.w3.org/2000/svg" viewBox="0 0 50 50">
  <defs>
    <style>
      .cls-1 {
        fill: #91867a;
      }

      .cls-1, .cls-2 {
        stroke-width: 0px;
      }

      .cls-2 {
        fill: #faf8ef;
        fill-rule: evenodd;
      }
    </style>
  </defs>
  <g id="Livello_1-2" data-name="Livello 1">
    <rect class="cls-1" width="50" height="50" rx="9" ry="9"/>
    <path class="cls-2" d="M42.73,38.23c1.64-3.31,2.23-7.05,1.64-10.7-.61-3.81-2.44-7.33-5.22-10.01-2.78-2.68-6.36-4.38-10.19-4.85-3.83-.47-7.72.33-11.06,2.26-2.52,1.46-4.64,3.51-6.17,5.96l-4.31-1.56c-.83-.3-1.66.43-1.46,1.29l2.65,11.83c.18.79,1.12,1.13,1.76.64l9.61-7.39c.7-.54.53-1.63-.3-1.93l-3.7-1.34c1.09-1.5,2.49-2.76,4.12-3.7,2.52-1.46,5.44-2.05,8.33-1.7,2.89.35,5.58,1.64,7.68,3.65,2.1,2.02,3.48,4.67,3.93,7.54.44,2.76,0,5.57-1.24,8.07l3.93,1.95Z"/>
  </g>
</svg>